<?xml version="1.0" standalone="no"?>
<!DOCTYPE svg PUBLIC "-//W3C//DTD SVG 20010904//EN"
 "http://www.w3.org/TR/2001/REC-SVG-20010904/DTD/svg10.dtd">
<svg version="1.0" xmlns="http://www.w3.org/2000/svg"
 width="48.000000pt" height="48.000000pt" viewBox="0 0 48.000000 48.000000"
 preserveAspectRatio="xMidYMid meet">
<metadata>
Created by potrace 1.10, written by Peter Selinger 2001-2011
</metadata>
<g transform="translate(0.000000,48.000000) scale(0.100000,-0.100000)"
fill="#000000" stroke="none">
<path d="M215 403 c-38 -20 -90 -67 -126 -117 -25 -34 -29 -48 -29 -108 0 -61
3 -72 26 -94 24 -25 28 -26 117 -19 114 8 191 16 195 20 5 5 9 48 17 172 7
111 7 112 -18 137 -23 23 -35 26 -89 26 -37 -1 -75 -7 -93 -17z m115 -7 c-17
-17 -12 -23 36 -41 25 -9 42 -21 37 -25 -10 -10 -115 -41 -120 -37 -2 2 3 22
11 45 14 39 14 43 -4 55 -17 12 -16 13 16 13 23 0 31 -3 24 -10z m-45 -18 c17
-16 -10 -75 -52 -115 -25 -24 -42 -43 -37 -43 4 0 25 17 46 37 27 26 39 33 42
22 39 -111 42 -123 24 -116 -7 3 -36 14 -65 26 l-52 20 -21 -64 c-24 -73 -35
-86 -44 -50 -15 58 -26 77 -39 67 -10 -9 -13 -4 -13 22 0 32 1 32 16 14 15
-19 18 -19 50 -5 38 17 27 23 -13 8 -27 -10 -37 1 -37 38 0 22 73 107 112 131
28 17 71 21 83 8z m100 2 c3 -5 1 -10 -4 -10 -6 0 -11 5 -11 10 0 6 2 10 4 10
3 0 8 -4 11 -10z m11 -103 c-2 -12 -8 -33 -15 -46 -7 -13 -9 -21 -3 -17 9 5 9
-91 0 -100 -3 -2 -15 6 -27 17 l-22 21 23 27 c19 21 19 23 2 8 -20 -17 -21
-16 -32 22 -18 59 -15 69 21 80 49 14 55 13 53 -12z m-151 -107 c3 -5 17 -10
30 -10 42 0 37 -19 -11 -50 -48 -30 -78 -37 -88 -22 -3 5 0 27 6 50 8 34 15
42 34 42 12 0 26 -4 29 -10z m105 -61 c0 -5 -13 -9 -30 -9 -34 0 -38 7 -13 26
18 12 43 3 43 -17z"/>
</g>
</svg>
